<svg width="42" height="41" viewBox="0 0 42 41" fill="none" xmlns="http://www.w3.org/2000/svg">
<rect x="4" y="3" width="35" height="35" rx="17.5" fill="#6E59A5"/>
<path d="M17.5946 30.9779C16.3572 30.9779 15.4186 30.6259 14.7786 29.9219C14.1386 29.1966 13.8186 28.3113 13.8186 27.2659C13.8186 26.2633 14.0959 25.2286 14.6506 24.1619C15.2052 23.0739 16.0479 22.0606 17.1786 21.1219C18.3306 20.1833 19.7706 19.4473 21.4986 18.9139C20.8586 18.8499 20.2292 18.6793 19.6106 18.4019C18.9919 18.1033 18.4692 17.7193 18.0426 17.2499C17.6372 16.7593 17.4346 16.2046 17.4346 15.5859C17.4346 15.1166 17.5732 14.6366 17.8506 14.1459C18.1492 13.5699 18.6079 13.1006 19.2266 12.7379C19.8666 12.3539 20.5812 12.0659 21.3706 11.8739C22.1812 11.6606 22.9706 11.5539 23.7386 11.5539C24.4639 11.5539 25.0719 11.6606 25.5626 11.8739C26.0532 12.0873 26.4372 12.3219 26.7146 12.5779C27.0986 11.9166 27.5466 11.4579 28.0586 11.2019C28.5706 10.9459 29.0506 10.8179 29.4986 10.8179C29.9252 10.8179 30.2772 10.9033 30.5546 11.0739C30.8319 11.2446 30.9706 11.4473 30.9706 11.6819C30.9706 11.8739 30.8639 12.0446 30.6506 12.1939C30.2026 12.5353 29.8186 12.8766 29.4986 13.2179C29.1786 13.5379 28.9012 13.8473 28.6666 14.1459C28.1972 14.7859 27.7492 15.5219 27.3226 16.3539C26.8959 17.1859 26.6399 18.0499 26.5546 18.9459C26.2346 19.0526 25.9999 18.9353 25.8506 18.5939C25.7226 18.2313 25.6586 17.7726 25.6586 17.2179C25.6586 16.6846 25.7012 16.1193 25.7866 15.5219C25.8932 14.9033 26.0319 14.3273 26.2026 13.7939C26.1172 13.7726 26.0212 13.7619 25.9146 13.7619C25.8079 13.7619 25.7012 13.7619 25.5946 13.7619C25.2106 13.7619 24.8052 13.8153 24.3786 13.9219C23.9519 14.0073 23.5039 14.1673 23.0346 14.4019C22.7786 14.5299 22.4906 14.7326 22.1706 15.0099C21.8719 15.2873 21.6052 15.6073 21.3706 15.9699C21.1572 16.3326 21.0506 16.6953 21.0506 17.0579C21.0506 17.3566 21.1572 17.6553 21.3706 17.9539C21.6052 18.2313 22.0106 18.4766 22.5866 18.6899C22.9706 18.7113 23.3332 18.9246 23.6746 19.3299C24.0372 19.7139 24.2186 20.0873 24.2186 20.4499C24.2186 20.7699 24.0692 20.9939 23.7706 21.1219C22.4692 21.5913 21.3279 22.2526 20.3466 23.1059C19.3866 23.9593 18.6399 24.8446 18.1066 25.7619C17.5946 26.6793 17.3386 27.4793 17.3386 28.1619C17.3386 28.6099 17.4559 28.9726 17.6906 29.2499C17.9466 29.5273 18.3412 29.6659 18.8746 29.6659C19.4719 29.6659 20.1332 29.4419 20.8586 28.9939C21.5839 28.5246 22.3092 27.9379 23.0346 27.2339C23.7599 26.5086 24.4212 25.7619 25.0186 24.9939C25.6159 24.2046 26.0959 23.4793 26.4586 22.8179C26.5652 22.8393 26.7146 22.8499 26.9066 22.8499C27.1199 22.8499 27.3012 22.9033 27.4506 23.0099C27.6212 23.0953 27.7066 23.2766 27.7066 23.5539C27.7066 23.7673 27.6319 24.0553 27.4826 24.4179C27.3332 24.7806 27.0772 25.2499 26.7146 25.8259C26.2452 26.5513 25.6372 27.2339 24.8906 27.8739C24.1439 28.4926 23.3439 29.0366 22.4906 29.5059C21.6372 29.9753 20.7839 30.3379 19.9306 30.5939C19.0772 30.8499 18.2986 30.9779 17.5946 30.9779Z" fill="#F3F1FC"/>
<rect x="0.5" y="0.5" width="41" height="40" rx="20" stroke="#6E59A5"/>
</svg>
