<svg width="116" height="37" viewBox="0 0 116 37" fill="none" xmlns="http://www.w3.org/2000/svg">
<path d="M48.032 16.232V18.072H51.632V20.456H48.032V22.488H52.112V25H44.896V13.72H52.112V16.232H48.032ZM65.3896 15.944C66.5203 15.944 67.4056 16.2853 68.0456 16.968C68.6963 17.6507 69.0216 18.584 69.0216 19.768V25H65.8856V20.184C65.8856 19.704 65.7523 19.3307 65.4856 19.064C65.219 18.7973 64.8563 18.664 64.3976 18.664C63.939 18.664 63.5763 18.7973 63.3096 19.064C63.043 19.3307 62.9096 19.704 62.9096 20.184V25H59.7736V20.184C59.7736 19.704 59.6403 19.3307 59.3736 19.064C59.1176 18.7973 58.7603 18.664 58.3016 18.664C57.8323 18.664 57.4643 18.7973 57.1976 19.064C56.931 19.3307 56.7976 19.704 56.7976 20.184V25H53.6616V16.024H56.7976V17.208C57.075 16.824 57.4323 16.52 57.8696 16.296C58.3176 16.0613 58.8296 15.944 59.4056 15.944C60.067 15.944 60.6536 16.088 61.1656 16.376C61.6883 16.664 62.099 17.0693 62.3976 17.592C62.7176 17.1013 63.139 16.7067 63.6616 16.408C64.1843 16.0987 64.7603 15.944 65.3896 15.944ZM70.2278 20.504C70.2278 19.576 70.3931 18.7653 70.7238 18.072C71.0651 17.3787 71.5238 16.8453 72.0998 16.472C72.6864 16.0987 73.3371 15.912 74.0518 15.912C74.6704 15.912 75.2038 16.0347 75.6518 16.28C76.0998 16.5253 76.4464 16.856 76.6918 17.272V16.024H79.8278V25H76.6918V23.752C76.4464 24.168 76.0944 24.4987 75.6358 24.744C75.1878 24.9893 74.6598 25.112 74.0518 25.112C73.3371 25.112 72.6864 24.9253 72.0998 24.552C71.5238 24.1787 71.0651 23.6453 70.7238 22.952C70.3931 22.248 70.2278 21.432 70.2278 20.504ZM76.6918 20.504C76.6918 19.928 76.5318 19.4747 76.2118 19.144C75.9024 18.8133 75.5184 18.648 75.0598 18.648C74.5904 18.648 74.2011 18.8133 73.8918 19.144C73.5824 19.464 73.4278 19.9173 73.4278 20.504C73.4278 21.08 73.5824 21.5387 73.8918 21.88C74.2011 22.2107 74.5904 22.376 75.0598 22.376C75.5184 22.376 75.9024 22.2107 76.2118 21.88C76.5318 21.5493 76.6918 21.0907 76.6918 20.504ZM87.4868 15.944C88.5214 15.944 89.3428 16.2907 89.9508 16.984C90.5588 17.6667 90.8628 18.5947 90.8628 19.768V25H87.7268V20.184C87.7268 19.672 87.5934 19.272 87.3268 18.984C87.0601 18.6853 86.7028 18.536 86.2548 18.536C85.7854 18.536 85.4174 18.6853 85.1508 18.984C84.8841 19.272 84.7508 19.672 84.7508 20.184V25H81.6148V16.024H84.7508V17.304C85.0281 16.8987 85.4014 16.5733 85.8708 16.328C86.3401 16.072 86.8788 15.944 87.4868 15.944ZM98.4555 15.944C99.4902 15.944 100.312 16.2907 100.92 16.984C101.528 17.6667 101.832 18.5947 101.832 19.768V25H98.6955V20.184C98.6955 19.672 98.5622 19.272 98.2955 18.984C98.0288 18.6853 97.6715 18.536 97.2235 18.536C96.7542 18.536 96.3862 18.6853 96.1195 18.984C95.8528 19.272 95.7195 19.672 95.7195 20.184V25H92.5835V16.024H95.7195V17.304C95.9968 16.8987 96.3702 16.5733 96.8395 16.328C97.3088 16.072 97.8475 15.944 98.4555 15.944ZM109.152 25L107.536 22.744L106.256 25H102.816L105.808 20.344L102.688 16.024H106.208L107.824 18.28L109.12 16.024H112.56L109.504 20.6L112.672 25H109.152Z" fill="#6E59A5"/>
<rect x="8.37213" y="4.37207" width="30.0465" height="29.2558" rx="10" fill="#6E59A5"/>
<path d="M19.3891 29.1928C18.2291 29.1928 17.3491 28.8628 16.7491 28.2028C16.1491 27.5228 15.8491 26.6928 15.8491 25.7128C15.8491 24.7728 16.1091 23.8028 16.6291 22.8028C17.1491 21.7828 17.9391 20.8328 18.9991 19.9528C20.0791 19.0728 21.4291 18.3828 23.0491 17.8828C22.4491 17.8228 21.8591 17.6628 21.2791 17.4028C20.6991 17.1228 20.2091 16.7628 19.8091 16.3228C19.4291 15.8628 19.2391 15.3428 19.2391 14.7628C19.2391 14.3228 19.3691 13.8728 19.6291 13.4128C19.9091 12.8728 20.3391 12.4328 20.9191 12.0928C21.5191 11.7328 22.1891 11.4628 22.9291 11.2828C23.6891 11.0828 24.4291 10.9828 25.1491 10.9828C25.8291 10.9828 26.3991 11.0828 26.8591 11.2828C27.3191 11.4828 27.6791 11.7028 27.9391 11.9428C28.2991 11.3228 28.7191 10.8928 29.1991 10.6528C29.6791 10.4128 30.1291 10.2928 30.5491 10.2928C30.9491 10.2928 31.2791 10.3728 31.5391 10.5328C31.7991 10.6928 31.9291 10.8828 31.9291 11.1028C31.9291 11.2828 31.8291 11.4428 31.6291 11.5828C31.2091 11.9028 30.8491 12.2228 30.5491 12.5428C30.2491 12.8428 29.9891 13.1328 29.7691 13.4128C29.3291 14.0128 28.9091 14.7028 28.5091 15.4828C28.1091 16.2628 27.8691 17.0728 27.7891 17.9128C27.4891 18.0128 27.2691 17.9028 27.1291 17.5828C27.0091 17.2428 26.9491 16.8128 26.9491 16.2928C26.9491 15.7928 26.9891 15.2628 27.0691 14.7028C27.1691 14.1228 27.2991 13.5828 27.4591 13.0828C27.3791 13.0628 27.2891 13.0528 27.1891 13.0528C27.0891 13.0528 26.9891 13.0528 26.8891 13.0528C26.5291 13.0528 26.1491 13.1028 25.7491 13.2028C25.3491 13.2828 24.9291 13.4328 24.4891 13.6528C24.2491 13.7728 23.9791 13.9628 23.6791 14.2228C23.3991 14.4828 23.1491 14.7828 22.9291 15.1228C22.7291 15.4628 22.6291 15.8028 22.6291 16.1428C22.6291 16.4228 22.7291 16.7028 22.9291 16.9828C23.1491 17.2428 23.5291 17.4728 24.0691 17.6728C24.4291 17.6928 24.7691 17.8928 25.0891 18.2728C25.4291 18.6328 25.5991 18.9828 25.5991 19.3228C25.5991 19.6228 25.4591 19.8328 25.1791 19.9528C23.9591 20.3928 22.8891 21.0128 21.9691 21.8128C21.0691 22.6128 20.3691 23.4428 19.8691 24.3028C19.3891 25.1628 19.1491 25.9128 19.1491 26.5528C19.1491 26.9728 19.2591 27.3128 19.4791 27.5728C19.7191 27.8328 20.0891 27.9628 20.5891 27.9628C21.1491 27.9628 21.7691 27.7528 22.4491 27.3328C23.1291 26.8928 23.8091 26.3428 24.4891 25.6828C25.1691 25.0028 25.7891 24.3028 26.3491 23.5828C26.9091 22.8428 27.3591 22.1628 27.6991 21.5428C27.7991 21.5628 27.9391 21.5728 28.1191 21.5728C28.3191 21.5728 28.4891 21.6228 28.6291 21.7228C28.7891 21.8028 28.8691 21.9728 28.8691 22.2328C28.8691 22.4328 28.7991 22.7028 28.6591 23.0428C28.5191 23.3828 28.2791 23.8228 27.9391 24.3628C27.4991 25.0428 26.9291 25.6828 26.2291 26.2828C25.5291 26.8628 24.7791 27.3728 23.9791 27.8128C23.1791 28.2528 22.3791 28.5928 21.5791 28.8328C20.7791 29.0728 20.0491 29.1928 19.3891 29.1928Z" fill="#F3F1FC"/>
<rect x="6.5" y="2.5" width="33.7907" height="33" rx="11.5" stroke="#6E59A5"/>
</svg>
